{
  "accessors": [
    {
      "bufferView": 2,
      "componentType": 5126,
      "count": 34790,
      "max": [
        3.4588699340820313,
        4.419155120849609,
        34.31429672241211
      ],
      "min": [
        -3.453169107437134,
        -0.5127630233764648,
        9.647144317626953
      ],
      "type": "VEC3"
    },
    {
      "bufferView": 2,
      "byteOffset": 417480,
      "componentType": 5126,
      "count": 34790,
      "max": [
        0.9999529719352722,
        0.9999995231628418,
        1.0
      ],
      "min": [
        -0.9999529719352722,
        -0.9999818801879883,
        -1.0
      ],
      "type": "VEC3"
    },
    {
      "bufferView": 3,
      "componentType": 5126,
      "count": 34790,
      "max": [
        1.0,
        0.9999867081642151,
        0.9980552196502686,
        1.0
      ],
      "min": [
        -0.9999980330467224,
        -0.9998974800109863,
        -0.9967249035835266,
        -1.0
      ],
      "type": "VEC4"
    },
    {
      "bufferView": 1,
      "componentType": 5126,
      "count": 34790,
      "max": [
        0.9802529811859131,
        0.9900739789009094
      ],
      "min": [
        0.01666400022804737,
        0.005435999948531389
      ],
      "type": "VEC2"
    },
    {
      "bufferView": 0,
      "componentType": 5125,
      "count": 202938,
      "type": "SCALAR"
    },
    {
      "bufferView": 2,
      "byteOffset": 834960,
      "componentType": 5126,
      "count": 3639,
      "max": [
        7.131072044372559,
        9.390185356140137,
        10.106361389160156
      ],
      "min": [
        -7.13108491897583,
        -4.871973037719727,
        -9.000000318337698e-06
      ],
      "type": "VEC3"
    },
    {
      "bufferView": 2,
      "byteOffset": 878628,
      "componentType": 5126,
      "count": 3639,
      "max": [
        1.0,
        1.0,
        1.0
      ],
      "min": [
        -1.0,
        -1.0,
        -1.0
      ],
      "type": "VEC3"
    },
    {
      "bufferView": 3,
      "byteOffset": 556640,
      "componentType": 5126,
      "count": 3639,
      "max": [
        0.9999970197677612,
        0.9997701048851013,
        0.9985547661781311,
        1.0
      ],
      "min": [
        -0.9997227787971497,
        -0.9999479055404663,
        -0.9897313117980957,
        1.0
      ],
      "type": "VEC4"
    },
    {
      "bufferView": 1,
      "byteOffset": 278320,
      "componentType": 5126,
      "count": 3639,
      "max": [
        0.9742810130119324,
        0.9390919804573059
      ],
      "min": [
        0.02571900002658367,
        0.0742029994726181
      ],
      "type": "VEC2"
    },
    {
      "bufferView": 0,
      "byteOffset": 811752,
      "componentType": 5125,
      "count": 20880,
      "type": "SCALAR"
    }
  ],
  "asset": {
    "extras": {
      "author": "thegraphicsgeek (https://sketchfab.com/thegraphicsgeek)",
      "license": "CC-BY-4.0 (http://creativecommons.org/licenses/by/4.0/)",
      "source": "https://sketchfab.com/3d-models/oscar-trophy-a466f45896814d73b0a91e8fd26ab1af",
      "title": "Oscar Trophy"
    },
    "generator": "Sketchfab-12.65.0",
    "version": "2.0"
  },
  "bufferViews": [
    {
      "buffer": 0,
      "byteLength": 895272,
      "name": "floatBufferViews",
      "target": 34963
    },
    {
      "buffer": 0,
      "byteLength": 307432,
      "byteOffset": 895272,
      "byteStride": 8,
      "name": "floatBufferViews",
      "target": 34962
    },
    {
      "buffer": 0,
      "byteLength": 922296,
      "byteOffset": 1202704,
      "byteStride": 12,
      "name": "floatBufferViews",
      "target": 34962
    },
    {
      "buffer": 0,
      "byteLength": 614864,
      "byteOffset": 2125000,
      "byteStride": 16,
      "name": "floatBufferViews",
      "target": 34962
    }
  ],
  "buffers": [
    {
      "byteLength": 2739864,
      "uri": "scene.bin"
    }
  ],
  "images": [
    {
      "uri": "textures/blinn1SG_baseColor.png"
    },
    {
      "uri": "textures/blinn1SG_metallicRoughness.png"
    },
    {
      "uri": "textures/blinn1SG_normal.png"
    },
    {
      "uri": "textures/blinn2SG_baseColor.png"
    },
    {
      "uri": "textures/blinn2SG_metallicRoughness.png"
    },
    {
      "uri": "textures/blinn2SG_normal.png"
    }
  ],
  "materials": [
    {
      "doubleSided": true,
      "name": "blinn1SG",
      "normalTexture": {
        "index": 2
      },
      "pbrMetallicRoughness": {
        "baseColorTexture": {
          "index": 0
        },
        "metallicRoughnessTexture": {
          "index": 1
        }
      }
    },
    {
      "doubleSided": true,
      "name": "blinn2SG",
      "normalTexture": {
        "index": 5
      },
      "pbrMetallicRoughness": {
        "baseColorTexture": {
          "index": 3
        },
        "metallicRoughnessTexture": {
          "index": 4
        }
      }
    }
  ],
  "meshes": [
    {
      "name": "Object_0",
      "primitives": [
        {
          "attributes": {
            "NORMAL": 1,
            "POSITION": 0,
            "TANGENT": 2,
            "TEXCOORD_0": 3
          },
          "indices": 4,
          "material": 0,
          "mode": 4
        }
      ]
    },
    {
      "name": "Object_1",
      "primitives": [
        {
          "attributes": {
            "NORMAL": 6,
            "POSITION": 5,
            "TANGENT": 7,
            "TEXCOORD_0": 8
          },
          "indices": 9,
          "material": 1,
          "mode": 4
        }
      ]
    }
  ],
  "nodes": [
    {
      "children": [
        1
      ],
      "matrix": [
        1.0,
        0.0,
        0.0,
        0.0,
        0.0,
        2.220446049250313e-16,
        -1.0,
        0.0,
        0.0,
        1.0,
        2.220446049250313e-16,
        0.0,
        0.0,
        0.0,
        0.0,
        1.0
      ],
      "name": "Sketchfab_model"
    },
    {
      "children": [
        2,
        3
      ],
      "name": "OscarTrophy_HighPoly.001.obj.cleaner.materialmerger.gles"
    },
    {
      "mesh": 0,
      "name": "Object_2"
    },
    {
      "mesh": 1,
      "name": "Object_3"
    }
  ],
  "samplers": [
    {
      "magFilter": 9729,
      "minFilter": 9987,
      "wrapS": 10497,
      "wrapT": 10497
    }
  ],
  "scene": 0,
  "scenes": [
    {
      "name": "Sketchfab_Scene",
      "nodes": [
        0
      ]
    }
  ],
  "textures": [
    {
      "sampler": 0,
      "source": 0
    },
    {
      "sampler": 0,
      "source": 1
    },
    {
      "sampler": 0,
      "source": 2
    },
    {
      "sampler": 0,
      "source": 3
    },
    {
      "sampler": 0,
      "source": 4
    },
    {
      "sampler": 0,
      "source": 5
    }
  ]
}
